<?xml version="1.0" encoding="UTF-8" standalone="no"?>
<!DOCTYPE svg PUBLIC "-//W3C//DTD SVG 1.1//EN" "http://www.w3.org/Graphics/SVG/1.1/DTD/svg11.dtd">
<svg xmlns="http://www.w3.org/2000/svg" xmlns:xlink="http://www.w3.org/1999/xlink" version="1.1" width="1024" height="768" viewBox="0 0 1024 768" xml:space="preserve">
<desc>Created with Fabric.js 6.5.1</desc>
<defs>
</defs>

<g transform="matrix(1.6577 0 0 1.6885 505.1373 384.5)" id="vectorized-icon-ai-3555528a-0699-9b92-5f33-65c66065af2f">
<g style="">
		<g transform="matrix(0.555 0 0 0.555 -63.6401 -69.3477)">
<path style="stroke: none; stroke-width: 1; stroke-dasharray: none; stroke-linecap: butt; stroke-dashoffset: 0; stroke-linejoin: miter; stroke-miterlimit: 4; fill: rgb(189,181,179); fill-rule: nonzero; opacity: 1;" transform=" translate(-916.4027, -919.0878)" d="M 991.662 635.385 C 1015.25 630.856 1161.91 640.607 1180 650.255 C 1182.07 651.355 1182.13 651.776 1182.83 653.88 C 1180.02 662.152 1147.78 701.422 1140.68 710.734 C 1085.22 783.529 1025.65 854.342 969.124 926.226 L 841.861 1086.95 C 832.674 1098.39 823.574 1109.91 814.563 1121.5 C 806.119 1132.53 799.636 1142.26 790.004 1152.35 C 780.438 1165.77 760.78 1190.22 749.073 1202.63 C 747.305 1204.51 746.235 1203.9 744.38 1203.57 C 737.586 1198.58 732.097 1186.31 727.976 1178.59 C 703.598 1132.65 684.89 1083.92 672.261 1033.47 C 650.686 943.662 644.716 850.809 654.614 758.974 C 655.281 752.646 657.642 724.698 662.241 718.592 C 665.195 714.672 675.327 710.553 680.266 708.656 C 754.149 680.268 832.931 654.866 911.444 643.377 C 927.107 640.983 942.843 639.088 958.627 637.695 C 970.168 636.787 979.991 636.967 991.662 635.385 Z" stroke-linecap="round"/>
</g>
		<g transform="matrix(0.555 0 0 0.555 37.3 -12.1576)">
<path style="stroke: none; stroke-width: 1; stroke-dasharray: none; stroke-linecap: butt; stroke-dashoffset: 0; stroke-linejoin: miter; stroke-miterlimit: 4; fill: rgb(189,181,179); fill-rule: nonzero; opacity: 1;" transform=" translate(-1098.272, -1022.1317)" d="M 1284.12 676.615 C 1297.27 675.881 1391.9 710.049 1396.08 719.049 C 1391.72 730.678 1363.1 764.126 1353.9 775.881 L 1260.84 893.807 L 899.105 1349.69 C 894.827 1355.82 890.537 1361.21 886.639 1367.66 C 852.994 1350.25 825.808 1313.37 800.464 1286.36 C 806.641 1275.6 813.791 1268.59 821.162 1258.77 C 838.164 1236.12 856.254 1214.6 873.953 1192.55 L 1007.59 1024.28 L 1198.28 783.602 L 1248.98 719.597 C 1256.41 710.08 1276.69 682.727 1284.12 676.615 Z" stroke-linecap="round"/>
</g>
		<g transform="matrix(0.555 0 0 0.555 87.2306 60.3704)">
<path style="stroke: none; stroke-width: 1; stroke-dasharray: none; stroke-linecap: butt; stroke-dashoffset: 0; stroke-linejoin: miter; stroke-miterlimit: 4; fill: rgb(189,181,179); fill-rule: nonzero; opacity: 1;" transform=" translate(-1188.2319, -1152.8073)" d="M 1410.61 851.805 C 1414.29 856.195 1410.29 902.414 1409.39 911.207 C 1400.15 1001.3 1379.65 1097.53 1337.12 1178.12 C 1270.77 1303.87 1158.43 1395.07 1030.5 1453.08 C 1020.73 1457.48 995.706 1440.78 986.139 1435.07 C 982.469 1432.74 961.016 1423.61 964.761 1417.8 C 983.547 1388.63 1007.88 1360.27 1029.51 1332.55 L 1268.54 1030.96 L 1356.14 918.979 C 1370.06 901.11 1394.58 867.171 1410.61 851.805 Z" stroke-linecap="round"/>
</g>
</g>
</g>
</svg>
